<?xml version="1.0" encoding="UTF-8"?>
<svg id="Livello_2" data-name="Livello 2" xmlns="http://www.w3.org/2000/svg" viewBox="0 0 519.94 160.49">
  <g id="Livello_1-2" data-name="Livello 1">
    <polygon points="132.18 18.88 132.18 47.2 113.29 47.2 113.29 56.64 103.85 56.64 103.85 66.09 94.41 66.09 94.41 75.53 84.97 75.53 84.97 84.97 75.53 84.97 75.53 94.41 56.65 94.41 56.65 84.97 47.2 84.97 47.2 75.53 37.77 75.53 37.77 66.09 28.33 66.09 28.33 56.64 18.88 56.64 18.88 47.2 0 47.2 0 18.88 28.32 18.88 28.32 9.44 47.2 9.44 47.2 0 84.97 0 84.97 9.44 103.85 9.44 103.85 18.88 132.18 18.88"/>
    <polygon points="122.73 56.64 132.18 56.64 132.18 94.41 122.73 94.41 122.73 113.29 113.29 113.29 113.29 122.73 103.85 122.73 103.85 132.17 94.41 132.17 94.41 141.61 84.97 141.61 84.97 151.05 75.53 151.05 75.53 160.49 56.65 160.49 56.65 151.05 47.2 151.05 47.2 141.61 37.77 141.61 37.77 132.17 28.32 132.17 28.32 122.73 18.88 122.73 18.88 113.29 9.44 113.29 9.44 94.41 0 94.41 0 56.64 9.44 56.64 9.44 66.09 18.88 66.09 18.88 75.53 28.33 75.53 28.33 84.97 37.77 84.97 37.77 94.41 47.2 94.41 47.2 103.85 56.65 103.85 56.65 113.29 75.53 113.29 75.53 103.85 84.97 103.85 84.97 94.41 94.41 94.41 94.41 84.97 103.85 84.97 103.85 75.53 113.29 75.53 113.29 66.09 122.73 66.09 122.73 56.64"/>
    <g>
      <path d="M169.94,136.6v-12.5h-12.5v-25h25v25h25v-25h-12.5v-12.5h-25v-12.5h-12.5v-37.5h12.5v-12.5h50v12.5h12.5v25h-25v-25h-25v37.5h25v12.5h12.5v12.5h12.5v25h-12.5v12.5h-50Z"/>
      <path d="M244.94,136.6v-12.5h12.5V36.6h-12.5v-12.5h87.5v25h-12.5v-12.5h-37.5v37.5h25v-12.5h12.5v37.5h-12.5v-12.5h-25v37.5h37.5v-12.5h12.5v25h-87.5Z"/>
      <path d="M369.94,136.6v-12.5h-12.5v-12.5h-12.5v-62.5h12.5v-12.5h12.5v-12.5h50v12.5h12.5v25h-25v-25h-25v12.5h-12.5v62.5h12.5v12.5h25v-25h25v25h-12.5v12.5h-50Z"/>
      <path d="M444.94,149.1v-12.5h75v12.5h-75Z"/>
    </g>
  </g>
</svg>